<svg id="visual" viewBox="0 0 900 600" width="900" height="600" xmlns="http://www.w3.org/2000/svg" xmlns:xlink="http://www.w3.org/1999/xlink" version="1.1"><path d="M0 85L13.7 77C27.3 69 54.7 53 82 49C109.3 45 136.7 53 163.8 58C191 63 218 65 245.2 71C272.3 77 299.7 87 327 92C354.3 97 381.7 97 409 88C436.3 79 463.7 61 491 59C518.3 57 545.7 71 573 81C600.3 91 627.7 97 654.8 93C682 89 709 75 736.2 73C763.3 71 790.7 81 818 81C845.3 81 872.7 71 886.3 66L900 61L900 0L886.3 0C872.7 0 845.3 0 818 0C790.7 0 763.3 0 736.2 0C709 0 682 0 654.8 0C627.7 0 600.3 0 573 0C545.7 0 518.3 0 491 0C463.7 0 436.3 0 409 0C381.7 0 354.3 0 327 0C299.7 0 272.3 0 245.2 0C218 0 191 0 163.8 0C136.7 0 109.3 0 82 0C54.7 0 27.3 0 13.7 0L0 0Z" fill="#eaf3ff"></path><path d="M0 193L13.7 179C27.3 165 54.7 137 82 126C109.3 115 136.7 121 163.8 133C191 145 218 163 245.2 176C272.3 189 299.7 197 327 209C354.3 221 381.7 237 409 231C436.3 225 463.7 197 491 188C518.3 179 545.7 189 573 202C600.3 215 627.7 231 654.8 223C682 215 709 183 736.2 179C763.3 175 790.7 199 818 204C845.3 209 872.7 195 886.3 188L900 181L900 59L886.3 64C872.7 69 845.3 79 818 79C790.7 79 763.3 69 736.2 71C709 73 682 87 654.8 91C627.7 95 600.3 89 573 79C545.7 69 518.3 55 491 57C463.7 59 436.3 77 409 86C381.7 95 354.3 95 327 90C299.7 85 272.3 75 245.2 69C218 63 191 61 163.8 56C136.7 51 109.3 43 82 47C54.7 51 27.3 67 13.7 75L0 83Z" fill="#d8e8ff"></path><path d="M0 361L13.7 341C27.3 321 54.7 281 82 280C109.3 279 136.7 317 163.8 350C191 383 218 411 245.2 418C272.3 425 299.7 411 327 404C354.3 397 381.7 397 409 375C436.3 353 463.7 309 491 302C518.3 295 545.7 325 573 342C600.3 359 627.7 363 654.8 371C682 379 709 391 736.2 397C763.3 403 790.7 403 818 408C845.3 413 872.7 423 886.3 428L900 433L900 179L886.3 186C872.7 193 845.3 207 818 202C790.7 197 763.3 173 736.2 177C709 181 682 213 654.8 221C627.7 229 600.3 213 573 200C545.7 187 518.3 177 491 186C463.7 195 436.3 223 409 229C381.7 235 354.3 219 327 207C299.7 195 272.3 187 245.2 174C218 161 191 143 163.8 131C136.7 119 109.3 113 82 124C54.7 135 27.3 163 13.7 177L0 191Z" fill="#c1daff"></path><path d="M0 547L13.7 540C27.3 533 54.7 519 82 508C109.3 497 136.7 489 163.8 495C191 501 218 521 245.2 532C272.3 543 299.7 545 327 544C354.3 543 381.7 539 409 528C436.3 517 463.7 499 491 495C518.3 491 545.7 501 573 507C600.3 513 627.7 515 654.8 514C682 513 709 509 736.2 515C763.3 521 790.7 537 818 542C845.3 547 872.7 541 886.3 538L900 535L900 431L886.3 426C872.7 421 845.3 411 818 406C790.7 401 763.3 401 736.2 395C709 389 682 377 654.8 369C627.7 361 600.3 357 573 340C545.7 323 518.3 293 491 300C463.7 307 436.3 351 409 373C381.7 395 354.3 395 327 402C299.7 409 272.3 423 245.2 416C218 409 191 381 163.8 348C136.7 315 109.3 277 82 278C54.7 279 27.3 319 13.7 339L0 359Z" fill="#d8e8ff"></path><path d="M0 601L13.7 601C27.3 601 54.7 601 82 601C109.3 601 136.7 601 163.8 601C191 601 218 601 245.2 601C272.3 601 299.7 601 327 601C354.3 601 381.7 601 409 601C436.3 601 463.7 601 491 601C518.3 601 545.7 601 573 601C600.3 601 627.7 601 654.8 601C682 601 709 601 736.2 601C763.3 601 790.7 601 818 601C845.3 601 872.7 601 886.3 601L900 601L900 533L886.3 536C872.7 539 845.3 545 818 540C790.7 535 763.3 519 736.2 513C709 507 682 511 654.8 512C627.7 513 600.3 511 573 505C545.7 499 518.3 489 491 493C463.7 497 436.3 515 409 526C381.7 537 354.3 541 327 542C299.7 543 272.3 541 245.2 530C218 519 191 499 163.8 493C136.7 487 109.3 495 82 506C54.7 517 27.3 531 13.7 538L0 545Z" fill="#eaf3ff"></path></svg>